# xmcd
#
# Track frame offsets:
#	150
#	12252
#	26027
#	41459
#	57212
#	69963
#	88493
#	107513
#	122810
#	136109
#	148731
#	162610
#	177199
#	189704
#	208591
#	219052
#
# Disc length: 3118 seconds
#
# Revision: 1
# Processed by: cddbd v1.4PL0 Copyright (c) Steve Scherf et al.
# Submitted via: audiograbber 1.81.02
#
DISCID=e30c2c10
DTITLE=Various Artist - Best of Country Line Dancing, The (Vol 1)
DYEAR=1998
DGENRE=Country
TTITLE0=P Kennerly - Hillbilly Rock
TTITLE1=R Dunn - Boot Scootin' Boogie
TTITLE2=Shapiro and Burr - Watch Me
TTITLE3=Samsonet and Nelson - A Juke Box With A Country Song
TTITLE4=Spooner and Williams - If The Devil Danced (In Empty Pockets)
TTITLE5=R Dunn - Neon Moon
TTITLE6=Cain and Depiero - Earthquake
TTITLE7=The Excape Club - Wild Wild West
TTITLE8=Gill and Nicholson - One More Last Chance
TTITLE9=Depiero and Shapiro - Wink
TTITLE10=Ball and Shamblin and Ziff - Thinkin' Problem
TTITLE11=Cochran and Capehart - Summertime Blues
TTITLE12=Gill and Nielson - What The Cowgirls Do
TTITLE13=D Schiltz and P Overstreet - When You Say Nothing At All
TTITLE14=Fagan and Royer - Sold (The Grundy Country Auction Incident)
TTITLE15=D wells and D Oglesby - Check Yes Or No
EXTD=
EXTT0=
EXTT1=
EXTT2=
EXTT3=
EXTT4=
EXTT5=
EXTT6=
EXTT7=
EXTT8=
EXTT9=
EXTT10=
EXTT11=
EXTT12=
EXTT13=
EXTT14=
EXTT15=
PLAYORDER=
